SplineFontDB: 3.2
FontName: PressStart2P
FullName: Press Start 2P Regular
FamilyName: Press Start 2P
Weight: Medium
Copyright: (c) 2011 Cody "CodeMan38" Boisclair. Released under the SIL Open Font License.
Version: 2.14
ItalicAngle: 0
UnderlinePosition: -98
UnderlineWidth: 102
Ascent: 2048
Descent: 0
InvalidEm: 0
sfntRevision: 0x00020000
LayerCount: 2
Layer: 0 1 "Back" 1
Layer: 1 1 "Fore" 0
XUID: [1021 877 -614015991 3456043]
StyleMap: 0x0040
FSType: 4
OS2Version: 4
OS2_WeightWidthSlopeOnly: 0
OS2_UseTypoMetrics: 1
CreationTime: 1307929694
ModificationTime: 1661276482
PfmFamily: 17
TTFWeight: 500
TTFWidth: 5
LineGap: 0
VLineGap: 0
Panose: 2 0 5 3 0 0 0 0 0 0
OS2TypoAscent: 2048
OS2TypoAOffset: 0
OS2TypoDescent: 0
OS2TypoDOffset: 0
OS2TypoLinegap: 0
OS2WinAscent: 2048
OS2WinAOffset: 0
OS2WinDescent: 40
OS2WinDOffset: 0
HheadAscent: 2048
HheadAOffset: 0
HheadDescent: -40
HheadDOffset: 0
OS2SubXSize: 1330
OS2SubYSize: 1432
OS2SubXOff: 0
OS2SubYOff: 286
OS2SupXSize: 1330
OS2SupYSize: 1432
OS2SupXOff: 0
OS2SupYOff: 982
OS2StrikeYSize: 102
OS2StrikeYPos: 530
OS2CapHeight: 2048
OS2XHeight: 1536
OS2Vendor: 'PfEd'
OS2CodePages: 6000009f.00000000
OS2UnicodeRanges: 800002af.5000604a.00000000.00000000
MarkAttachClasses: 1
DEI: 91125
TtTable: prep
PUSHW_1
 511
SCANCTRL
PUSHB_1
 1
SCANTYPE
SVTCA[y-axis]
MPPEM
PUSHB_1
 8
LT
IF
PUSHB_2
 1
 1
INSTCTRL
EIF
PUSHB_2
 70
 6
CALL
IF
POP
PUSHB_1
 16
EIF
MPPEM
PUSHB_1
 20
GT
IF
POP
PUSHB_1
 128
EIF
SCVTCI
PUSHB_1
 6
CALL
NOT
IF
SVTCA[y-axis]
PUSHB_1
 1
DUP
RCVT
PUSHB_1
 3
CALL
WCVTP
PUSHB_1
 2
DUP
RCVT
PUSHB_3
 1
 8
 2
CALL
PUSHB_1
 3
CALL
WCVTP
PUSHB_1
 3
DUP
RCVT
PUSHB_3
 2
 7
 2
CALL
PUSHB_1
 3
CALL
WCVTP
PUSHB_1
 4
DUP
RCVT
PUSHB_3
 3
 7
 2
CALL
PUSHB_1
 3
CALL
WCVTP
SVTCA[x-axis]
PUSHB_1
 5
DUP
RCVT
PUSHB_1
 3
CALL
WCVTP
PUSHB_1
 6
DUP
RCVT
PUSHW_3
 5
 32767
 2
CALL
PUSHB_2
 3
 70
SROUND
CALL
WCVTP
EIF
PUSHB_1
 20
CALL
EndTTInstrs
TtTable: fpgm
PUSHB_1
 0
FDEF
PUSHB_1
 0
SZP0
MPPEM
PUSHB_1
 76
LT
IF
PUSHB_1
 74
SROUND
EIF
PUSHB_1
 0

StartChar: A
Encoding: 65 65 0
Width: 2048
GlyphClass: 2
Flags: W
LayerCount: 2
Fore
SplineSet
0 256 m 1,0,-1
 0 896 l 1,1,-1
 0 1536 l 1,2,-1
 128 1536 l 1,3,-1
 256 1536 l 1,4,-1
 256 1664 l 1,5,-1
 256 1792 l 1,6,-1
 384 1792 l 1,7,-1
 512 1792 l 1,8,-1
 512 1920 l 1,9,-1
 512 2048 l 1,10,-1
 896 2048 l 1,11,-1
 1280 2048 l 1,12,-1
 1280 1920 l 1,13,-1
 1280 1792 l 1,14,-1
 1408 1792 l 1,15,-1
 1536 1792 l 1,16,-1
 1536 1664 l 1,17,-1
 1536 1536 l 1,18,-1
 1664 1536 l 1,19,-1
 1792 1536 l 1,20,-1
 1792 896 l 1,21,-1
 1792 256 l 1,22,-1
 1536 256 l 1,23,-1
 1280 256 l 1,24,-1
 1280 512 l 1,25,-1
 1280 768 l 1,26,-1
 896 768 l 1,27,-1
 512 768 l 1,28,-1
 512 512 l 1,29,-1
 512 256 l 1,30,-1
 256 256 l 1,31,-1
 0 256 l 1,0,-1
512 1024 m 1,32,-1
 896 1024 l 1,33,-1
 1280 1024 l 1,34,-1
 1280 1280 l 1,35,-1
 1280 1536 l 1,36,-1
 1152 1536 l 1,37,-1
 1024 1536 l 1,38,-1
 1024 1664 l 1,39,-1
 1024 1792 l 1,40,-1
 896 1792 l 1,41,-1
 768 1792 l 1,42,-1
 768 1664 l 1,43,-1
 768 1536 l 1,44,-1
 640 1536 l 1,45,-1
 512 1536 l 1,46,-1
 512 1280 l 1,47,-1
 512 1024 l 1,32,-1
EndSplineSet
Validated: 1
EndChar

StartChar: B
Encoding: 66 66 1
Width: 2048
GlyphClass: 2
Flags: W
LayerCount: 2
Fore
SplineSet
0 256 m 1,0,-1
 0 1152 l 1,1,-1
 0 2048 l 1,2,-1
 768 2048 l 1,3,-1
 1536 2048 l 1,4,-1
 1536 1920 l 1,5,-1
 1536 1792 l 1,6,-1
 1664 1792 l 1,7,-1
 1792 1792 l 1,8,-1
 1792 1536 l 1,9,-1
 1792 1280 l 1,10,-1
 1664 1280 l 1,11,-1
 1536 1280 l 1,12,-1
 1536 1152 l 1,13,-1
 1536 1024 l 1,14,-1
 1664 1024 l 1,15,-1
 1792 1024 l 1,16,-1
 1792 768 l 1,17,-1
 1792 512 l 1,18,-1
 1664 512 l 1,19,-1
 1536 512 l 1,20,-1
 1536 384 l 1,21,-1
 1536 256 l 1,22,-1
 768 256 l 1,23,-1
 0 256 l 1,0,-1
512 512 m 1,24,-1
 896 512 l 1,25,-1
 1280 512 l 1,26,-1
 1280 768 l 1,27,-1
 1280 1024 l 1,28,-1
 896 1024 l 1,29,-1
 512 1024 l 1,30,-1
 512 768 l 1,31,-1
 512 512 l 1,24,-1
512 1280 m 1,32,-1
 896 1280 l 1,33,-1
 1280 1280 l 1,34,-1
 1280 1536 l 1,35,-1
 1280 1792 l 1,36,-1
 896 1792 l 1,37,-1
 512 1792 l 1,38,-1
 512 1536 l 1,39,-1
 512 1280 l 1,32,-1
EndSplineSet
Validated: 1
EndChar

StartChar: C
Encoding: 67 67 2
Width: 2048
GlyphClass: 2
Flags: W
LayerCount: 2
Fore
SplineSet
0 768 m 1,0,-1
 0 1152 l 1,1,-1
 0 1536 l 1,2,-1
 128 1536 l 1,3,-1
 256 1536 l 1,4,-1
 256 1664 l 1,5,-1
 256 1792 l 1,6,-1
 384 1792 l 1,7,-1
 512 1792 l 1,8,-1
 512 1920 l 1,9,-1
 512 2048 l 1,10,-1
 1024 2048 l 1,11,-1
 1536 2048 l 1,12,-1
 1536 1920 l 1,13,-1
 1536 1792 l 1,14,-1
 1664 1792 l 1,15,-1
 1792 1792 l 1,16,-1
 1792 1664 l 1,17,-1
 1792 1536 l 1,18,-1
 1536 1536 l 1,19,-1
 1280 1536 l 1,20,-1
 1280 1664 l 1,21,-1
 1280 1792 l 1,22,-1
 1024 1792 l 1,23,-1
 768 1792 l 1,24,-1
 768 1664 l 1,25,-1
 768 1536 l 1,26,-1
 640 1536 l 1,27,-1
 512 1536 l 1,28,-1
 512 1152 l 1,29,-1
 512 768 l 1,30,-1
 640 768 l 1,31,-1
 768 768 l 1,32,-1
 768 640 l 1,33,-1
 768 512 l 1,34,-1
 1024 512 l 1,35,-1
 1280 512 l 1,36,-1
 1280 640 l 1,37,-1
 1280 768 l 1,38,-1
 1536 768 l 1,39,-1
 1792 768 l 1,40,-1
 1792 640 l 1,41,-1
 1792 512 l 1,42,-1
 1664 512 l 1,43,-1
 1536 512 l 1,44,-1
 1536 384 l 1,45,-1
 1536 256 l 1,46,-1
 1024 256 l 1,47,-1
 512 256 l 1,48,-1
 512 384 l 1,49,-1
 512 512 l 1,50,-1
 384 512 l 1,51,-1
 256 512 l 1,52,-1
 256 640 l 1,53,-1
 256 768 l 1,54,-1
 128 768 l 1,55,-1
 0 768 l 1,0,-1
EndSplineSet
Validated: 1
EndChar

StartChar: D
Encoding: 68 68 3
Width: 2048
GlyphClass: 2
Flags: W
LayerCount: 2
Fore
SplineSet
0 256 m 1,0,-1
 0 1152 l 1,1,-1
 0 2048 l 1,2,-1
 640 2048 l 1,3,-1
 1280 2048 l 1,4,-1
 1280 1920 l 1,5,-1
 1280 1792 l 1,6,-1
 1408 1792 l 1,7,-1
 1536 1792 l 1,8,-1
 1536 1664 l 1,9,-1
 1536 1536 l 1,10,-1
 1664 1536 l 1,11,-1
 1792 1536 l 1,12,-1
 1792 1152 l 1,13,-1
 1792 768 l 1,14,-1
 1664 768 l 1,15,-1
 1536 768 l 1,16,-1
 1536 640 l 1,17,-1
 1536 512 l 1,18,-1
 1408 512 l 1,19,-1
 1280 512 l 1,20,-1
 1280 384 l 1,21,-1
 1280 256 l 1,22,-1
 640 256 l 1,23,-1
 0 256 l 1,0,-1
512 512 m 1,24,-1
 768 512 l 1,25,-1
 1024 512 l 1,26,-1
 1024 640 l 1,27,-1
 1024 768 l 1,28,-1
 1152 768 l 1,29,-1
 1280 768 l 1,30,-1
 1280 1152 l 1,31,-1
 1280 1536 l 1,32,-1
 1152 1536 l 1,33,-1
 1024 1536 l 1,34,-1
 1024 1664 l 1,35,-1
 1024 1792 l 1,36,-1
 768 1792 l 1,37,-1
 512 1792 l 1,38,-1
 512 1152 l 1,39,-1
 512 512 l 1,24,-1
EndSplineSet
Validated: 1
EndChar

StartChar: E
Encoding: 69 69 4
Width: 2048
GlyphClass: 2
Flags: W
LayerCount: 2
Fore
SplineSet
0 256 m 1,0,-1
 0 1152 l 1,1,-1
 0 2048 l 1,2,-1
 896 2048 l 1,3,-1
 1792 2048 l 1,4,-1
 1792 1920 l 1,5,-1
 1792 1792 l 1,6,-1
 1152 1792 l 1,7,-1
 512 1792 l 1,8,-1
 512 1536 l 1,9,-1
 512 1280 l 1,10,-1
 1024 1280 l 1,11,-1
 1536 1280 l 1,12,-1
 1536 1152 l 1,13,-1
 1536 1024 l 1,14,-1
 1024 1024 l 1,15,-1
 512 1024 l 1,16,-1
 512 768 l 1,17,-1
 512 512 l 1,18,-1
 1152 512 l 1,19,-1
 1792 512 l 1,20,-1
 1792 384 l 1,21,-1
 1792 256 l 1,22,-1
 896 256 l 1,23,-1
 0 256 l 1,0,-1
EndSplineSet
Validated: 1
EndChar

StartChar: F
Encoding: 70 70 5
Width: 2048
GlyphClass: 2
Flags: W
LayerCount: 2
Fore
SplineSet
0 256 m 1,0,-1
 0 1152 l 1,1,-1
 0 2048 l 1,2,-1
 896 2048 l 1,3,-1
 1792 2048 l 1,4,-1
 1792 1920 l 1,5,-1
 1792 1792 l 1,6,-1
 1152 1792 l 1,7,-1
 512 1792 l 1,8,-1
 512 1536 l 1,9,-1
 512 1280 l 1,10,-1
 1024 1280 l 1,11,-1
 1536 1280 l 1,12,-1
 1536 1152 l 1,13,-1
 1536 1024 l 1,14,-1
 1024 1024 l 1,15,-1
 512 1024 l 1,16,-1
 512 640 l 1,17,-1
 512 256 l 1,18,-1
 256 256 l 1,19,-1
 0 256 l 1,0,-1
EndSplineSet
Validated: 1
EndChar

StartChar: G
Encoding: 71 71 6
Width: 2048
GlyphClass: 2
Flags: W
LayerCount: 2
Fore
SplineSet
0 768 m 1,0,-1
 0 1152 l 1,1,-1
 0 1536 l 1,2,-1
 128 1536 l 1,3,-1
 256 1536 l 1,4,-1
 256 1664 l 1,5,-1
 256 1792 l 1,6,-1
 384 1792 l 1,7,-1
 512 1792 l 1,8,-1
 512 1920 l 1,9,-1
 512 2048 l 1,10,-1
 1152 2048 l 1,11,-1
 1792 2048 l 1,12,-1
 1792 1920 l 1,13,-1
 1792 1792 l 1,14,-1
 1280 1792 l 1,15,-1
 768 1792 l 1,16,-1
 768 1664 l 1,17,-1
 768 1536 l 1,18,-1
 640 1536 l 1,19,-1
 512 1536 l 1,20,-1
 512 1152 l 1,21,-1
 512 768 l 1,22,-1
 640 768 l 1,23,-1
 768 768 l 1,24,-1
 768 640 l 1,25,-1
 768 512 l 1,26,-1
 1024 512 l 1,27,-1
 1280 512 l 1,28,-1
 1280 768 l 1,29,-1
 1280 1024 l 1,30,-1
 1152 1024 l 1,31,-1
 1024 1024 l 1,32,-1
 1024 1152 l 1,33,-1
 1024 1280 l 1,34,-1
 1408 1280 l 1,35,-1
 1792 1280 l 1,36,-1
 1792 768 l 1,37,-1
 1792 256 l 1,38,-1
 1152 256 l 1,39,-1
 512 256 l 1,40,-1
 512 384 l 1,41,-1
 512 512 l 1,42,-1
 384 512 l 1,43,-1
 256 512 l 1,44,-1
 256 640 l 1,45,-1
 256 768 l 1,46,-1
 128 768 l 1,47,-1
 0 768 l 1,0,-1
EndSplineSet
Validated: 1
EndChar

StartChar: H
Encoding: 72 72 7
Width: 2048
GlyphClass: 2
Flags: W
LayerCount: 2
Fore
SplineSet
0 256 m 1,0,-1
 0 1152 l 1,1,-1
 0 2048 l 1,2,-1
 256 2048 l 1,3,-1
 512 2048 l 1,4,-1
 512 1664 l 1,5,-1
 512 1280 l 1,6,-1
 896 1280 l 1,7,-1
 1280 1280 l 1,8,-1
 1280 1664 l 1,9,-1
 1280 2048 l 1,10,-1
 1536 2048 l 1,11,-1
 1792 2048 l 1,12,-1
 1792 1152 l 1,13,-1
 1792 256 l 1,14,-1
 1536 256 l 1,15,-1
 1280 256 l 1,16,-1
 1280 640 l 1,17,-1
 1280 1024 l 1,18,-1
 896 1024 l 1,19,-1
 512 1024 l 1,20,-1
 512 640 l 1,21,-1
 512 256 l 1,22,-1
 256 256 l 1,23,-1
 0 256 l 1,0,-1
EndSplineSet
Validated: 1
EndChar

StartChar: I
Encoding: 73 73 8
Width: 2048
GlyphClass: 2
Flags: W
LayerCount: 2
Fore
SplineSet
256 256 m 1,0,-1
 256 384 l 1,1,-1
 256 512 l 1,2,-1
 512 512 l 1,3,-1
 768 512 l 1,4,-1
 768 1152 l 1,5,-1
 768 1792 l 1,6,-1
 512 1792 l 1,7,-1
 256 1792 l 1,8,-1
 256 1920 l 1,9,-1
 256 2048 l 1,10,-1
 1024 2048 l 1,11,-1
 1792 2048 l 1,12,-1
 1792 1920 l 1,13,-1
 1792 1792 l 1,14,-1
 1536 1792 l 1,15,-1
 1280 1792 l 1,16,-1
 1280 1152 l 1,17,-1
 1280 512 l 1,18,-1
 1536 512 l 1,19,-1
 1792 512 l 1,20,-1
 1792 384 l 1,21,-1
 1792 256 l 1,22,-1
 1024 256 l 1,23,-1
 256 256 l 1,0,-1
EndSplineSet
Validated: 1
EndChar

StartChar: J
Encoding: 74 74 9
Width: 2048
GlyphClass: 2
Flags: W
LayerCount: 2
Fore
SplineSet
0 512 m 1,0,-1
 0 640 l 1,1,-1
 0 768 l 1,2,-1
 256 768 l 1,3,-1
 512 768 l 1,4,-1
 512 640 l 1,5,-1
 512 512 l 1,6,-1
 896 512 l 1,7,-1
 1280 512 l 1,8,-1
 1280 1280 l 1,9,-1
 1280 2048 l 1,10,-1
 1536 2048 l 1,11,-1
 1792 2048 l 1,12,-1
 1792 1280 l 1,13,-1
 1792 512 l 1,14,-1
 1664 512 l 1,15,-1
 1536 512 l 1,16,-1
 1536 384 l 1,17,-1
 1536 256 l 1,18,-1
 896 256 l 1,19,-1
 256 256 l 1,20,-1
 256 384 l 1,21,-1
 256 512 l 1,22,-1
 128 512 l 1,23,-1
 0 512 l 1,0,-1
EndSplineSet
Validated: 1
EndChar

StartChar: K
Encoding: 75 75 10
Width: 2048
GlyphClass: 2
Flags: W
LayerCount: 2
Fore
SplineSet
0 256 m 1,0,-1
 0 1152 l 1,1,-1
 0 2048 l 1,2,-1
 256 2048 l 1,3,-1
 512 2048 l 1,4,-1
 512 1664 l 1,5,-1
 512 1280 l 1,6,-1
 640 1280 l 1,7,-1
 768 1280 l 1,8,-1
 768 1408 l 1,9,-1
 768 1536 l 1,10,-1
 896 1536 l 1,11,-1
 1024 1536 l 1,12,-1
 1024 1664 l 1,13,-1
 1024 1792 l 1,14,-1
 1152 1792 l 1,15,-1
 1280 1792 l 1,16,-1
 1280 1920 l 1,17,-1
 1280 2048 l 1,18,-1
 1536 2048 l 1,19,-1
 1792 2048 l 1,20,-1
 1792 1920 l 1,21,-1
 1792 1792 l 1,22,-1
 1664 1792 l 1,23,-1
 1536 1792 l 1,24,-1
 1536 1664 l 1,25,-1
 1536 1536 l 1,26,-1
 1408 1536 l 1,27,-1
 1280 1536 l 1,28,-1
 1280 1408 l 1,29,-1
 1280 1280 l 1,30,-1
 1152 1280 l 1,31,-1
 1024 1280 l 1,32,-1
 1024 1152 l 1,33,-1
 1024 1024 l 1,34,-1
 1152 1024 l 1,35,-1
 1280 1024 l 1,36,-1
 1280 896 l 1,37,-1
 1280 768 l 1,38,-1
 1408 768 l 1,39,-1
 1536 768 l 1,40,-1
 1536 640 l 1,41,-1
 1536 512 l 1,42,-1
 1664 512 l 1,43,-1
 1792 512 l 1,44,-1
 1792 384 l 1,45,-1
 1792 256 l 1,46,-1
 1408 256 l 1,47,-1
 1024 256 l 1,48,-1
 1024 384 l 1,49,-1
 1024 512 l 1,50,-1
 896 512 l 1,51,-1
 768 512 l 1,52,-1
 768 640 l 1,53,-1
 768 768 l 1,54,-1
 640 768 l 1,55,-1
 512 768 l 1,56,-1
 512 512 l 1,57,-1
 512 256 l 1,58,-1
 256 256 l 1,59,-1
 0 256 l 1,0,-1
EndSplineSet
Validated: 1
EndChar

StartChar: L
Encoding: 76 76 11
Width: 2048
GlyphClass: 2
Flags: W
LayerCount: 2
Fore
SplineSet
256 256 m 1,0,-1
 256 1152 l 1,1,-1
 256 2048 l 1,2,-1
 512 2048 l 1,3,-1
 768 2048 l 1,4,-1
 768 1280 l 1,5,-1
 768 512 l 1,6,-1
 1280 512 l 1,7,-1
 1792 512 l 1,8,-1
 1792 384 l 1,9,-1
 1792 256 l 1,10,-1
 1024 256 l 1,11,-1
 256 256 l 1,0,-1
EndSplineSet
Validated: 1
EndChar

StartChar: M
Encoding: 77 77 12
Width: 2048
GlyphClass: 2
Flags: W
LayerCount: 2
Fore
SplineSet
0 256 m 1,0,-1
 0 1152 l 1,1,-1
 0 2048 l 1,2,-1
 256 2048 l 1,3,-1
 512 2048 l 1,4,-1
 512 1920 l 1,5,-1
 512 1792 l 1,6,-1
 640 1792 l 1,7,-1
 768 1792 l 1,8,-1
 768 1664 l 1,9,-1
 768 1536 l 1,10,-1
 896 1536 l 1,11,-1
 1024 1536 l 1,12,-1
 1024 1664 l 1,13,-1
 1024 1792 l 1,14,-1
 1152 1792 l 1,15,-1
 1280 1792 l 1,16,-1
 1280 1920 l 1,17,-1
 1280 2048 l 1,18,-1
 1536 2048 l 1,19,-1
 1792 2048 l 1,20,-1
 1792 1152 l 1,21,-1
 1792 256 l 1,22,-1
 1536 256 l 1,23,-1
 1280 256 l 1,24,-1
 1280 640 l 1,25,-1
 1280 1024 l 1,26,-1
 1152 1024 l 1,27,-1
 1024 1024 l 1,28,-1
 1024 896 l 1,29,-1
 1024 768 l 1,30,-1
 896 768 l 1,31,-1
 768 768 l 1,32,-1
 768 896 l 1,33,-1
 768 1024 l 1,34,-1
 640 1024 l 1,35,-1
 512 1024 l 1,36,-1
 512 640 l 1,37,-1
 512 256 l 1,38,-1
 256 256 l 1,39,-1
 0 256 l 1,0,-1
EndSplineSet
Validated: 1
EndChar

StartChar: N
Encoding: 78 78 13
Width: 2048
GlyphClass: 2
Flags: W
LayerCount: 2
Fore
SplineSet
0 256 m 1,0,-1
 0 1152 l 1,1,-1
 0 2048 l 1,2,-1
 256 2048 l 1,3,-1
 512 2048 l 1,4,-1
 512 1920 l 1,5,-1
 512 1792 l 1,6,-1
 640 1792 l 1,7,-1
 768 1792 l 1,8,-1
 768 1664 l 1,9,-1
 768 1536 l 1,10,-1
 896 1536 l 1,11,-1
 1024 1536 l 1,12,-1
 1024 1408 l 1,13,-1
 1024 1280 l 1,14,-1
 1152 1280 l 1,15,-1
 1280 1280 l 1,16,-1
 1280 1664 l 1,17,-1
 1280 2048 l 1,18,-1
 1536 2048 l 1,19,-1
 1792 2048 l 1,20,-1
 1792 1152 l 1,21,-1
 1792 256 l 1,22,-1
 1536 256 l 1,23,-1
 1280 256 l 1,24,-1
 1280 384 l 1,25,-1
 1280 512 l 1,26,-1
 1152 512 l 1,27,-1
 1024 512 l 1,28,-1
 1024 640 l 1,29,-1
 1024 768 l 1,30,-1
 896 768 l 1,31,-1
 768 768 l 1,32,-1
 768 896 l 1,33,-1
 768 1024 l 1,34,-1
 640 1024 l 1,35,-1
 512 1024 l 1,36,-1
 512 640 l 1,37,-1
 512 256 l 1,38,-1
 256 256 l 1,39,-1
 0 256 l 1,0,-1
EndSplineSet
Validated: 1
EndChar

StartChar: O
Encoding: 79 79 14
Width: 2048
GlyphClass: 2
Flags: W
LayerCount: 2
Fore
SplineSet
0 512 m 1,0,-1
 0 1152 l 1,1,-1
 0 1792 l 1,2,-1
 128 1792 l 1,3,-1
 256 1792 l 1,4,-1
 256 1920 l 1,5,-1
 256 2048 l 1,6,-1
 896 2048 l 1,7,-1
 1536 2048 l 1,8,-1
 1536 1920 l 1,9,-1
 1536 1792 l 1,10,-1
 1664 1792 l 1,11,-1
 1792 1792 l 1,12,-1
 1792 1152 l 1,13,-1
 1792 512 l 1,14,-1
 1664 512 l 1,15,-1
 1536 512 l 1,16,-1
 1536 384 l 1,17,-1
 1536 256 l 1,18,-1
 896 256 l 1,19,-1
 256 256 l 1,20,-1
 256 384 l 1,21,-1
 256 512 l 1,22,-1
 128 512 l 1,23,-1
 0 512 l 1,0,-1
512 512 m 1,24,-1
 896 512 l 1,25,-1
 1280 512 l 1,26,-1
 1280 1152 l 1,27,-1
 1280 1792 l 1,28,-1
 896 1792 l 1,29,-1
 512 1792 l 1,30,-1
 512 1152 l 1,31,-1
 512 512 l 1,24,-1
EndSplineSet
Validated: 1
EndChar

StartChar: P
Encoding: 80 80 15
Width: 2048
GlyphClass: 2
Flags: W
LayerCount: 2
Fore
SplineSet
0 256 m 1,0,-1
 0 1152 l 1,1,-1
 0 2048 l 1,2,-1
 768 2048 l 1,3,-1
 1536 2048 l 1,4,-1
 1536 1920 l 1,5,-1
 1536 1792 l 1,6,-1
 1664 1792 l 1,7,-1
 1792 1792 l 1,8,-1
 1792 1408 l 1,9,-1
 1792 1024 l 1,10,-1
 1664 1024 l 1,11,-1
 1536 1024 l 1,12,-1
 1536 896 l 1,13,-1
 1536 768 l 1,14,-1
 1024 768 l 1,15,-1
 512 768 l 1,16,-1
 512 512 l 1,17,-1
 512 256 l 1,18,-1
 256 256 l 1,19,-1
 0 256 l 1,0,-1
512 1024 m 1,20,-1
 896 1024 l 1,21,-1
 1280 1024 l 1,22,-1
 1280 1408 l 1,23,-1
 1280 1792 l 1,24,-1
 896 1792 l 1,25,-1
 512 1792 l 1,26,-1
 512 1408 l 1,27,-1
 512 1024 l 1,20,-1
EndSplineSet
Validated: 1
EndChar

StartChar: Q
Encoding: 81 81 16
Width: 2048
GlyphClass: 2
Flags: W
LayerCount: 2
Fore
SplineSet
0 512 m 1,0,-1
 0 1152 l 1,1,-1
 0 1792 l 1,2,-1
 128 1792 l 1,3,-1
 256 1792 l 1,4,-1
 256 1920 l 1,5,-1
 256 2048 l 1,6,-1
 896 2048 l 1,7,-1
 1536 2048 l 1,8,-1
 1536 1920 l 1,9,-1
 1536 1792 l 1,10,-1
 1664 1792 l 1,11,-1
 1792 1792 l 1,12,-1
 1792 1280 l 1,13,-1
 1792 768 l 1,14,-1
 1664 768 l 1,15,-1
 1536 768 l 1,16,-1
 1536 640 l 1,17,-1
 1536 512 l 1,18,-1
 1664 512 l 1,19,-1
 1792 512 l 1,20,-1
 1792 384 l 1,21,-1
 1792 256 l 1,22,-1
 1664 256 l 1,23,-1
 1536 256 l 1,24,-1
 1536 384 l 1,25,-1
 1536 512 l 1,26,-1
 1408 512 l 1,27,-1
 1280 512 l 1,28,-1
 1280 384 l 1,29,-1
 1280 256 l 1,30,-1
 768 256 l 1,31,-1
 256 256 l 1,32,-1
 256 384 l 1,33,-1
 256 512 l 1,34,-1
 128 512 l 1,35,-1
 0 512 l 1,0,-1
512 512 m 1,36,-1
 768 512 l 1,37,-1
 1024 512 l 1,38,-1
 1024 640 l 1,39,-1
 1024 768 l 1,40,-1
 896 768 l 1,41,-1
 768 768 l 1,42,-1
 768 896 l 1,43,-1
 768 1024 l 1,44,-1
 1024 1024 l 1,45,-1
 1280 1024 l 1,46,-1
 1280 1408 l 1,47,-1
 1280 1792 l 1,48,-1
 896 1792 l 1,49,-1
 512 1792 l 1,50,-1
 512 1152 l 1,51,-1
 512 512 l 1,36,-1
EndSplineSet
Validated: 5
EndChar

StartChar: R
Encoding: 82 82 17
Width: 2048
GlyphClass: 2
Flags: W
LayerCount: 2
Fore
SplineSet
0 256 m 1,0,-1
 0 1152 l 1,1,-1
 0 2048 l 1,2,-1
 768 2048 l 1,3,-1
 1536 2048 l 1,4,-1
 1536 1920 l 1,5,-1
 1536 1792 l 1,6,-1
 1664 1792 l 1,7,-1
 1792 1792 l 1,8,-1
 1792 1408 l 1,9,-1
 1792 1024 l 1,10,-1
 1536 1024 l 1,11,-1
 1280 1024 l 1,12,-1
 1280 896 l 1,13,-1
 1280 768 l 1,14,-1
 1408 768 l 1,15,-1
 1536 768 l 1,16,-1
 1536 640 l 1,17,-1
 1536 512 l 1,18,-1
 1664 512 l 1,19,-1
 1792 512 l 1,20,-1
 1792 384 l 1,21,-1
 1792 256 l 1,22,-1
 1408 256 l 1,23,-1
 1024 256 l 1,24,-1
 1024 384 l 1,25,-1
 1024 512 l 1,26,-1
 896 512 l 1,27,-1
 768 512 l 1,28,-1
 768 640 l 1,29,-1
 768 768 l 1,30,-1
 640 768 l 1,31,-1
 512 768 l 1,32,-1
 512 512 l 1,33,-1
 512 256 l 1,34,-1
 256 256 l 1,35,-1
 0 256 l 1,0,-1
512 1024 m 1,36,-1
 768 1024 l 1,37,-1
 1024 1024 l 1,38,-1
 1024 1152 l 1,39,-1
 1024 1280 l 1,40,-1
 1152 1280 l 1,41,-1
 1280 1280 l 1,42,-1
 1280 1536 l 1,43,-1
 1280 1792 l 1,44,-1
 896 1792 l 1,45,-1
 512 1792 l 1,46,-1
 512 1408 l 1,47,-1
 512 1024 l 1,36,-1
EndSplineSet
Validated: 1
EndChar

StartChar: S
Encoding: 83 83 18
Width: 2048
GlyphClass: 2
Flags: W
LayerCount: 2
Fore
SplineSet
0 512 m 1,0,-1
 0 640 l 1,1,-1
 0 768 l 1,2,-1
 256 768 l 1,3,-1
 512 768 l 1,4,-1
 512 640 l 1,5,-1
 512 512 l 1,6,-1
 896 512 l 1,7,-1
 1280 512 l 1,8,-1
 1280 768 l 1,9,-1
 1280 1024 l 1,10,-1
 768 1024 l 1,11,-1
 256 1024 l 1,12,-1
 256 1152 l 1,13,-1
 256 1280 l 1,14,-1
 128 1280 l 1,15,-1
 0 1280 l 1,16,-1
 0 1536 l 1,17,-1
 0 1792 l 1,18,-1
 128 1792 l 1,19,-1
 256 1792 l 1,20,-1
 256 1920 l 1,21,-1
 256 2048 l 1,22,-1
 768 2048 l 1,23,-1
 1280 2048 l 1,24,-1
 1280 1920 l 1,25,-1
 1280 1792 l 1,26,-1
 1408 1792 l 1,27,-1
 1536 1792 l 1,28,-1
 1536 1664 l 1,29,-1
 1536 1536 l 1,30,-1
 1280 1536 l 1,31,-1
 1024 1536 l 1,32,-1
 1024 1664 l 1,33,-1
 1024 1792 l 1,34,-1
 768 1792 l 1,35,-1
 512 1792 l 1,36,-1
 512 1536 l 1,37,-1
 512 1280 l 1,38,-1
 1024 1280 l 1,39,-1
 1536 1280 l 1,40,-1
 1536 1152 l 1,41,-1
 1536 1024 l 1,42,-1
 1664 1024 l 1,43,-1
 1792 1024 l 1,44,-1
 1792 768 l 1,45,-1
 1792 512 l 1,46,-1
 1664 512 l 1,47,-1
 1536 512 l 1,48,-1
 1536 384 l 1,49,-1
 1536 256 l 1,50,-1
 896 256 l 1,51,-1
 256 256 l 1,52,-1
 256 384 l 1,53,-1
 256 512 l 1,54,-1
 128 512 l 1,55,-1
 0 512 l 1,0,-1
EndSplineSet
Validated: 1
EndChar

StartChar: T
Encoding: 84 84 19
Width: 2048
GlyphClass: 2
Flags: W
LayerCount: 2
Fore
SplineSet
256 1792 m 1,0,-1
 256 1920 l 1,1,-1
 256 2048 l 1,2,-1
 1024 2048 l 1,3,-1
 1792 2048 l 1,4,-1
 1792 1920 l 1,5,-1
 1792 1792 l 1,6,-1
 1536 1792 l 1,7,-1
 1280 1792 l 1,8,-1
 1280 1024 l 1,9,-1
 1280 256 l 1,10,-1
 1024 256 l 1,11,-1
 768 256 l 1,12,-1
 768 1024 l 1,13,-1
 768 1792 l 1,14,-1
 512 1792 l 1,15,-1
 256 1792 l 1,0,-1
EndSplineSet
Validated: 1
EndChar

StartChar: U
Encoding: 85 85 20
Width: 2048
GlyphClass: 2
Flags: W
LayerCount: 2
Fore
SplineSet
0 512 m 1,0,-1
 0 1280 l 1,1,-1
 0 2048 l 1,2,-1
 256 2048 l 1,3,-1
 512 2048 l 1,4,-1
 512 1280 l 1,5,-1
 512 512 l 1,6,-1
 896 512 l 1,7,-1
 1280 512 l 1,8,-1
 1280 1280 l 1,9,-1
 1280 2048 l 1,10,-1
 1536 2048 l 1,11,-1
 1792 2048 l 1,12,-1
 1792 1280 l 1,13,-1
 1792 512 l 1,14,-1
 1664 512 l 1,15,-1
 1536 512 l 1,16,-1
 1536 384 l 1,17,-1
 1536 256 l 1,18,-1
 896 256 l 1,19,-1
 256 256 l 1,20,-1
 256 384 l 1,21,-1
 256 512 l 1,22,-1
 128 512 l 1,23,-1
 0 512 l 1,0,-1
EndSplineSet
Validated: 1
EndChar

StartChar: V
Encoding: 86 86 21
Width: 2048
GlyphClass: 2
Flags: W
LayerCount: 2
Fore
SplineSet
0 1024 m 1,0,-1
 0 1536 l 1,1,-1
 0 2048 l 1,2,-1
 256 2048 l 1,3,-1
 512 2048 l 1,4,-1
 512 1664 l 1,5,-1
 512 1280 l 1,6,-1
 640 1280 l 1,7,-1
 768 1280 l 1,8,-1
 768 1152 l 1,9,-1
 768 1024 l 1,10,-1
 896 1024 l 1,11,-1
 1024 1024 l 1,12,-1
 1024 1152 l 1,13,-1
 1024 1280 l 1,14,-1
 1152 1280 l 1,15,-1
 1280 1280 l 1,16,-1
 1280 1664 l 1,17,-1
 1280 2048 l 1,18,-1
 1536 2048 l 1,19,-1
 1792 2048 l 1,20,-1
 1792 1536 l 1,21,-1
 1792 1024 l 1,22,-1
 1664 1024 l 1,23,-1
 1536 1024 l 1,24,-1
 1536 896 l 1,25,-1
 1536 768 l 1,26,-1
 1408 768 l 1,27,-1
 1280 768 l 1,28,-1
 1280 640 l 1,29,-1
 1280 512 l 1,30,-1
 1152 512 l 1,31,-1
 1024 512 l 1,32,-1
 1024 384 l 1,33,-1
 1024 256 l 1,34,-1
 896 256 l 1,35,-1
 768 256 l 1,36,-1
 768 384 l 1,37,-1
 768 512 l 1,38,-1
 640 512 l 1,39,-1
 512 512 l 1,40,-1
 512 640 l 1,41,-1
 512 768 l 1,42,-1
 384 768 l 1,43,-1
 256 768 l 1,44,-1
 256 896 l 1,45,-1
 256 1024 l 1,46,-1
 128 1024 l 1,47,-1
 0 1024 l 1,0,-1
EndSplineSet
Validated: 1
EndChar

StartChar: W
Encoding: 87 87 22
Width: 2048
GlyphClass: 2
Flags: W
LayerCount: 2
Fore
SplineSet
0 256 m 1,0,-1
 0 1152 l 1,1,-1
 0 2048 l 1,2,-1
 256 2048 l 1,3,-1
 512 2048 l 1,4,-1
 512 1664 l 1,5,-1
 512 1280 l 1,6,-1
 640 1280 l 1,7,-1
 768 1280 l 1,8,-1
 768 1408 l 1,9,-1
 768 1536 l 1,10,-1
 896 1536 l 1,11,-1
 1024 1536 l 1,12,-1
 1024 1408 l 1,13,-1
 1024 1280 l 1,14,-1
 1152 1280 l 1,15,-1
 1280 1280 l 1,16,-1
 1280 1664 l 1,17,-1
 1280 2048 l 1,18,-1
 1536 2048 l 1,19,-1
 1792 2048 l 1,20,-1
 1792 1152 l 1,21,-1
 1792 256 l 1,22,-1
 1536 256 l 1,23,-1
 1280 256 l 1,24,-1
 1280 384 l 1,25,-1
 1280 512 l 1,26,-1
 1152 512 l 1,27,-1
 1024 512 l 1,28,-1
 1024 640 l 1,29,-1
 1024 768 l 1,30,-1
 896 768 l 1,31,-1
 768 768 l 1,32,-1
 768 640 l 1,33,-1
 768 512 l 1,34,-1
 640 512 l 1,35,-1
 512 512 l 1,36,-1
 512 384 l 1,37,-1
 512 256 l 1,38,-1
 256 256 l 1,39,-1
 0 256 l 1,0,-1
EndSplineSet
Validated: 1
EndChar

StartChar: X
Encoding: 88 88 23
Width: 2048
GlyphClass: 2
Flags: W
LayerCount: 2
Fore
SplineSet
0 256 m 1,0,-1
 0 512 l 1,1,-1
 0 768 l 1,2,-1
 128 768 l 1,3,-1
 256 768 l 1,4,-1
 256 896 l 1,5,-1
 256 1024 l 1,6,-1
 384 1024 l 1,7,-1
 512 1024 l 1,8,-1
 512 1152 l 1,9,-1
 512 1280 l 1,10,-1
 384 1280 l 1,11,-1
 256 1280 l 1,12,-1
 256 1408 l 1,13,-1
 256 1536 l 1,14,-1
 128 1536 l 1,15,-1
 0 1536 l 1,16,-1
 0 1792 l 1,17,-1
 0 2048 l 1,18,-1
 256 2048 l 1,19,-1
 512 2048 l 1,20,-1
 512 1920 l 1,21,-1
 512 1792 l 1,22,-1
 640 1792 l 1,23,-1
 768 1792 l 1,24,-1
 768 1664 l 1,25,-1
 768 1536 l 1,26,-1
 896 1536 l 1,27,-1
 1024 1536 l 1,28,-1
 1024 1664 l 1,29,-1
 1024 1792 l 1,30,-1
 1152 1792 l 1,31,-1
 1280 1792 l 1,32,-1
 1280 1920 l 1,33,-1
 1280 2048 l 1,34,-1
 1536 2048 l 1,35,-1
 1792 2048 l 1,36,-1
 1792 1792 l 1,37,-1
 1792 1536 l 1,38,-1
 1664 1536 l 1,39,-1
 1536 1536 l 1,40,-1
 1536 1408 l 1,41,-1
 1536 1280 l 1,42,-1
 1408 1280 l 1,43,-1
 1280 1280 l 1,44,-1
 1280 1152 l 1,45,-1
 1280 1024 l 1,46,-1
 1408 1024 l 1,47,-1
 1536 1024 l 1,48,-1
 1536 896 l 1,49,-1
 1536 768 l 1,50,-1
 1664 768 l 1,51,-1
 1792 768 l 1,52,-1
 1792 512 l 1,53,-1
 1792 256 l 1,54,-1
 1536 256 l 1,55,-1
 1280 256 l 1,56,-1
 1280 384 l 1,57,-1
 1280 512 l 1,58,-1
 1152 512 l 1,59,-1
 1024 512 l 1,60,-1
 1024 640 l 1,61,-1
 1024 768 l 1,62,-1
 896 768 l 1,63,-1
 768 768 l 1,64,-1
 768 640 l 1,65,-1
 768 512 l 1,66,-1
 640 512 l 1,67,-1
 512 512 l 1,68,-1
 512 384 l 1,69,-1
 512 256 l 1,70,-1
 256 256 l 1,71,-1
 0 256 l 1,0,-1
EndSplineSet
Validated: 1
EndChar

StartChar: Y
Encoding: 89 89 24
Width: 2048
GlyphClass: 2
Flags: W
LayerCount: 2
Fore
SplineSet
256 1280 m 1,0,-1
 256 1664 l 1,1,-1
 256 2048 l 1,2,-1
 512 2048 l 1,3,-1
 768 2048 l 1,4,-1
 768 1664 l 1,5,-1
 768 1280 l 1,6,-1
 1024 1280 l 1,7,-1
 1280 1280 l 1,8,-1
 1280 1664 l 1,9,-1
 1280 2048 l 1,10,-1
 1536 2048 l 1,11,-1
 1792 2048 l 1,12,-1
 1792 1664 l 1,13,-1
 1792 1280 l 1,14,-1
 1664 1280 l 1,15,-1
 1536 1280 l 1,16,-1
 1536 1152 l 1,17,-1
 1536 1024 l 1,18,-1
 1408 1024 l 1,19,-1
 1280 1024 l 1,20,-1
 1280 640 l 1,21,-1
 1280 256 l 1,22,-1
 1024 256 l 1,23,-1
 768 256 l 1,24,-1
 768 640 l 1,25,-1
 768 1024 l 1,26,-1
 640 1024 l 1,27,-1
 512 1024 l 1,28,-1
 512 1152 l 1,29,-1
 512 1280 l 1,30,-1
 384 1280 l 1,31,-1
 256 1280 l 1,0,-1
EndSplineSet
Validated: 1
EndChar

StartChar: Z
Encoding: 90 90 25
Width: 2048
GlyphClass: 2
Flags: W
LayerCount: 2
Fore
SplineSet
0 256 m 1,0,-1
 0 512 l 1,1,-1
 0 768 l 1,2,-1
 128 768 l 1,3,-1
 256 768 l 1,4,-1
 256 896 l 1,5,-1
 256 1024 l 1,6,-1
 384 1024 l 1,7,-1
 512 1024 l 1,8,-1
 512 1152 l 1,9,-1
 512 1280 l 1,10,-1
 640 1280 l 1,11,-1
 768 1280 l 1,12,-1
 768 1408 l 1,13,-1
 768 1536 l 1,14,-1
 896 1536 l 1,15,-1
 1024 1536 l 1,16,-1
 1024 1664 l 1,17,-1
 1024 1792 l 1,18,-1
 512 1792 l 1,19,-1
 0 1792 l 1,20,-1
 0 1920 l 1,21,-1
 0 2048 l 1,22,-1
 896 2048 l 1,23,-1
 1792 2048 l 1,24,-1
 1792 1792 l 1,25,-1
 1792 1536 l 1,26,-1
 1664 1536 l 1,27,-1
 1536 1536 l 1,28,-1
 1536 1408 l 1,29,-1
 1536 1280 l 1,30,-1
 1408 1280 l 1,31,-1
 1280 1280 l 1,32,-1
 1280 1152 l 1,33,-1
 1280 1024 l 1,34,-1
 1152 1024 l 1,35,-1
 1024 1024 l 1,36,-1
 1024 896 l 1,37,-1
 1024 768 l 1,38,-1
 896 768 l 1,39,-1
 768 768 l 1,40,-1
 768 640 l 1,41,-1
 768 512 l 1,42,-1
 1280 512 l 1,43,-1
 1792 512 l 1,44,-1
 1792 384 l 1,45,-1
 1792 256 l 1,46,-1
 896 256 l 1,47,-1
 0 256 l 1,0,-1
EndSplineSet
Validated: 1
EndChar

StartChar: a
Encoding: 97 97 26
Width: 2048
GlyphClass: 2
Flags: W
LayerCount: 2
Fore
SplineSet
0 512 m 1,0,-1
 0 640 l 1,1,-1
 0 768 l 1,2,-1
 128 768 l 1,3,-1
 256 768 l 1,4,-1
 256 896 l 1,5,-1
 256 1024 l 1,6,-1
 768 1024 l 1,7,-1
 1280 1024 l 1,8,-1
 1280 1152 l 1,9,-1
 1280 1280 l 1,10,-1
 768 1280 l 1,11,-1
 256 1280 l 1,12,-1
 256 1408 l 1,13,-1
 256 1536 l 1,14,-1
 896 1536 l 1,15,-1
 1536 1536 l 1,16,-1
 1536 1408 l 1,17,-1
 1536 1280 l 1,18,-1
 1664 1280 l 1,19,-1
 1792 1280 l 1,20,-1
 1792 768 l 1,21,-1
 1792 256 l 1,22,-1
 1024 256 l 1,23,-1
 256 256 l 1,24,-1
 256 384 l 1,25,-1
 256 512 l 1,26,-1
 128 512 l 1,27,-1
 0 512 l 1,0,-1
512 512 m 1,28,-1
 896 512 l 1,29,-1
 1280 512 l 1,30,-1
 1280 640 l 1,31,-1
 1280 768 l 1,32,-1
 896 768 l 1,33,-1
 512 768 l 1,34,-1
 512 640 l 1,35,-1
 512 512 l 1,28,-1
EndSplineSet
Validated: 1
EndChar

StartChar: b
Encoding: 98 98 27
Width: 2048
GlyphClass: 2
Flags: W
LayerCount: 2
Fore
SplineSet
0 512 m 1,0,-1
 0 1280 l 1,1,-1
 0 2048 l 1,2,-1
 256 2048 l 1,3,-1
 512 2048 l 1,4,-1
 512 1792 l 1,5,-1
 512 1536 l 1,6,-1
 1024 1536 l 1,7,-1
 1536 1536 l 1,8,-1
 1536 1408 l 1,9,-1
 1536 1280 l 1,10,-1
 1664 1280 l 1,11,-1
 1792 1280 l 1,12,-1
 1792 896 l 1,13,-1
 1792 512 l 1,14,-1
 1664 512 l 1,15,-1
 1536 512 l 1,16,-1
 1536 384 l 1,17,-1
 1536 256 l 1,18,-1
 896 256 l 1,19,-1
 256 256 l 1,20,-1
 256 384 l 1,21,-1
 256 512 l 1,22,-1
 128 512 l 1,23,-1
 0 512 l 1,0,-1
512 512 m 1,24,-1
 896 512 l 1,25,-1
 1280 512 l 1,26,-1
 1280 896 l 1,27,-1
 1280 1280 l 1,28,-1
 896 1280 l 1,29,-1
 512 1280 l 1,30,-1
 512 896 l 1,31,-1
 512 512 l 1,24,-1
EndSplineSet
Validated: 1
EndChar

StartChar: c
Encoding: 99 99 28
Width: 2048
GlyphClass: 2
Flags: W
LayerCount: 2
Fore
SplineSet
0 512 m 1,0,-1
 0 896 l 1,1,-1
 0 1280 l 1,2,-1
 128 1280 l 1,3,-1
 256 1280 l 1,4,-1
 256 1408 l 1,5,-1
 256 1536 l 1,6,-1
 1024 1536 l 1,7,-1
 1792 1536 l 1,8,-1
 1792 1408 l 1,9,-1
 1792 1280 l 1,10,-1
 1152 1280 l 1,11,-1
 512 1280 l 1,12,-1
 512 896 l 1,13,-1
 512 512 l 1,14,-1
 1152 512 l 1,15,-1
 1792 512 l 1,16,-1
 1792 384 l 1,17,-1
 1792 256 l 1,18,-1
 1024 256 l 1,19,-1
 256 256 l 1,20,-1
 256 384 l 1,21,-1
 256 512 l 1,22,-1
 128 512 l 1,23,-1
 0 512 l 1,0,-1
EndSplineSet
Validated: 1
EndChar

StartChar: d
Encoding: 100 100 29
Width: 2048
GlyphClass: 2
Flags: W
LayerCount: 2
Fore
SplineSet
0 512 m 1,0,-1
 0 896 l 1,1,-1
 0 1280 l 1,2,-1
 128 1280 l 1,3,-1
 256 1280 l 1,4,-1
 256 1408 l 1,5,-1
 256 1536 l 1,6,-1
 768 1536 l 1,7,-1
 1280 1536 l 1,8,-1
 1280 1792 l 1,9,-1
 1280 2048 l 1,10,-1
 1536 2048 l 1,11,-1
 1792 2048 l 1,12,-1
 1792 1152 l 1,13,-1
 1792 256 l 1,14,-1
 1024 256 l 1,15,-1
 256 256 l 1,16,-1
 256 384 l 1,17,-1
 256 512 l 1,18,-1
 128 512 l 1,19,-1
 0 512 l 1,0,-1
512 512 m 1,20,-1
 896 512 l 1,21,-1
 1280 512 l 1,22,-1
 1280 896 l 1,23,-1
 1280 1280 l 1,24,-1
 896 1280 l 1,25,-1
 512 1280 l 1,26,-1
 512 896 l 1,27,-1
 512 512 l 1,20,-1
EndSplineSet
Validated: 1
EndChar

StartChar: e
Encoding: 101 101 30
Width: 2048
GlyphClass: 2
Flags: W
LayerCount: 2
Fore
SplineSet
0 512 m 1,0,-1
 0 896 l 1,1,-1
 0 1280 l 1,2,-1
 128 1280 l 1,3,-1
 256 1280 l 1,4,-1
 256 1408 l 1,5,-1
 256 1536 l 1,6,-1
 896 1536 l 1,7,-1
 1536 1536 l 1,8,-1
 1536 1408 l 1,9,-1
 1536 1280 l 1,10,-1
 1664 1280 l 1,11,-1
 1792 1280 l 1,12,-1
 1792 1024 l 1,13,-1
 1792 768 l 1,14,-1
 1152 768 l 1,15,-1
 512 768 l 1,16,-1
 512 640 l 1,17,-1
 512 512 l 1,18,-1
 1024 512 l 1,19,-1
 1536 512 l 1,20,-1
 1536 384 l 1,21,-1
 1536 256 l 1,22,-1
 896 256 l 1,23,-1
 256 256 l 1,24,-1
 256 384 l 1,25,-1
 256 512 l 1,26,-1
 128 512 l 1,27,-1
 0 512 l 1,0,-1
512 1024 m 1,28,-1
 896 1024 l 1,29,-1
 1280 1024 l 1,30,-1
 1280 1152 l 1,31,-1
 1280 1280 l 1,32,-1
 896 1280 l 1,33,-1
 512 1280 l 1,34,-1
 512 1152 l 1,35,-1
 512 1024 l 1,28,-1
EndSplineSet
Validated: 1
EndChar

StartChar: f
Encoding: 102 102 31
Width: 2048
GlyphClass: 2
Flags: W
LayerCount: 2
Fore
SplineSet
256 1280 m 1,0,-1
 256 1408 l 1,1,-1
 256 1536 l 1,2,-1
 512 1536 l 1,3,-1
 768 1536 l 1,4,-1
 768 1664 l 1,5,-1
 768 1792 l 1,6,-1
 896 1792 l 1,7,-1
 1024 1792 l 1,8,-1
 1024 1920 l 1,9,-1
 1024 2048 l 1,10,-1
 1408 2048 l 1,11,-1
 1792 2048 l 1,12,-1
 1792 1920 l 1,13,-1
 1792 1792 l 1,14,-1
 1536 1792 l 1,15,-1
 1280 1792 l 1,16,-1
 1280 1664 l 1,17,-1
 1280 1536 l 1,18,-1
 1536 1536 l 1,19,-1
 1792 1536 l 1,20,-1
 1792 1408 l 1,21,-1
 1792 1280 l 1,22,-1
 1536 1280 l 1,23,-1
 1280 1280 l 1,24,-1
 1280 768 l 1,25,-1
 1280 256 l 1,26,-1
 1024 256 l 1,27,-1
 768 256 l 1,28,-1
 768 768 l 1,29,-1
 768 1280 l 1,30,-1
 512 1280 l 1,31,-1
 256 1280 l 1,0,-1
EndSplineSet
Validated: 1
EndChar

StartChar: g
Encoding: 103 103 32
Width: 2048
GlyphClass: 2
Flags: W
LayerCount: 2
Fore
SplineSet
0 768 m 1,0,-1
 0 1024 l 1,1,-1
 0 1280 l 1,2,-1
 128 1280 l 1,3,-1
 256 1280 l 1,4,-1
 256 1408 l 1,5,-1
 256 1536 l 1,6,-1
 1024 1536 l 1,7,-1
 1792 1536 l 1,8,-1
 1792 896 l 1,9,-1
 1792 256 l 1,10,-1
 1664 256 l 1,11,-1
 1536 256 l 1,12,-1
 1536 128 l 1,13,-1
 1536 0 l 1,14,-1
 896 0 l 1,15,-1
 256 0 l 1,16,-1
 256 128 l 1,17,-1
 256 256 l 1,18,-1
 768 256 l 1,19,-1
 1280 256 l 1,20,-1
 1280 384 l 1,21,-1
 1280 512 l 1,22,-1
 768 512 l 1,23,-1
 256 512 l 1,24,-1
 256 640 l 1,25,-1
 256 768 l 1,26,-1
 128 768 l 1,27,-1
 0 768 l 1,0,-1
512 768 m 1,28,-1
 896 768 l 1,29,-1
 1280 768 l 1,30,-1
 1280 1024 l 1,31,-1
 1280 1280 l 1,32,-1
 896 1280 l 1,33,-1
 512 1280 l 1,34,-1
 512 1024 l 1,35,-1
 512 768 l 1,28,-1
EndSplineSet
Validated: 1
EndChar

StartChar: h
Encoding: 104 104 33
Width: 2048
GlyphClass: 2
Flags: W
LayerCount: 2
Fore
SplineSet
0 256 m 1,0,-1
 0 1152 l 1,1,-1
 0 2048 l 1,2,-1
 256 2048 l 1,3,-1
 512 2048 l 1,4,-1
 512 1792 l 1,5,-1
 512 1536 l 1,6,-1
 1024 1536 l 1,7,-1
 1536 1536 l 1,8,-1
 1536 1408 l 1,9,-1
 1536 1280 l 1,10,-1
 1664 1280 l 1,11,-1
 1792 1280 l 1,12,-1
 1792 768 l 1,13,-1
 1792 256 l 1,14,-1
 1536 256 l 1,15,-1
 1280 256 l 1,16,-1
 1280 768 l 1,17,-1
 1280 1280 l 1,18,-1
 896 1280 l 1,19,-1
 512 1280 l 1,20,-1
 512 768 l 1,21,-1
 512 256 l 1,22,-1
 256 256 l 1,23,-1
 0 256 l 1,0,-1
EndSplineSet
Validated: 1
EndChar

StartChar: i
Encoding: 105 105 34
Width: 2048
GlyphClass: 2
Flags: W
LayerCount: 2
Fore
SplineSet
256 256 m 1,0,-1
 256 384 l 1,1,-1
 256 512 l 1,2,-1
 512 512 l 1,3,-1
 768 512 l 1,4,-1
 768 896 l 1,5,-1
 768 1280 l 1,6,-1
 640 1280 l 1,7,-1
 512 1280 l 1,8,-1
 512 1408 l 1,9,-1
 512 1536 l 1,10,-1
 896 1536 l 1,11,-1
 1280 1536 l 1,12,-1
 1280 1024 l 1,13,-1
 1280 512 l 1,14,-1
 1536 512 l 1,15,-1
 1792 512 l 1,16,-1
 1792 384 l 1,17,-1
 1792 256 l 1,18,-1
 1024 256 l 1,19,-1
 256 256 l 1,0,-1
768 1792 m 1,20,-1
 768 1920 l 1,21,-1
 768 2048 l 1,22,-1
 1024 2048 l 1,23,-1
 1280 2048 l 1,24,-1
 1280 1920 l 1,25,-1
 1280 1792 l 1,26,-1
 1024 1792 l 1,27,-1
 768 1792 l 1,20,-1
EndSplineSet
Validated: 1
EndChar

StartChar: j
Encoding: 106 106 35
Width: 2048
GlyphClass: 2
Flags: W
LayerCount: 2
Fore
SplineSet
256 0 m 1,0,-1
 256 128 l 1,1,-1
 256 256 l 1,2,-1
 640 256 l 1,3,-1
 1024 256 l 1,4,-1
 1024 768 l 1,5,-1
 1024 1280 l 1,6,-1
 896 1280 l 1,7,-1
 768 1280 l 1,8,-1
 768 1408 l 1,9,-1
 768 1536 l 1,10,-1
 1152 1536 l 1,11,-1
 1536 1536 l 1,12,-1
 1536 896 l 1,13,-1
 1536 256 l 1,14,-1
 1408 256 l 1,15,-1
 1280 256 l 1,16,-1
 1280 128 l 1,17,-1
 1280 0 l 1,18,-1
 768 0 l 1,19,-1
 256 0 l 1,0,-1
1024 1792 m 1,20,-1
 1024 1920 l 1,21,-1
 1024 2048 l 1,22,-1
 1280 2048 l 1,23,-1
 1536 2048 l 1,24,-1
 1536 1920 l 1,25,-1
 1536 1792 l 1,26,-1
 1280 1792 l 1,27,-1
 1024 1792 l 1,20,-1
EndSplineSet
Validated: 1
EndChar

StartChar: k
Encoding: 107 107 36
Width: 2048
GlyphClass: 2
Flags: W
LayerCount: 2
Fore
SplineSet
0 256 m 1,0,-1
 0 1152 l 1,1,-1
 0 2048 l 1,2,-1
 256 2048 l 1,3,-1
 512 2048 l 1,4,-1
 512 1664 l 1,5,-1
 512 1280 l 1,6,-1
 768 1280 l 1,7,-1
 1024 1280 l 1,8,-1
 1024 1408 l 1,9,-1
 1024 1536 l 1,10,-1
 1408 1536 l 1,11,-1
 1792 1536 l 1,12,-1
 1792 1408 l 1,13,-1
 1792 1280 l 1,14,-1
 1664 1280 l 1,15,-1
 1536 1280 l 1,16,-1
 1536 1152 l 1,17,-1
 1536 1024 l 1,18,-1
 1408 1024 l 1,19,-1
 1280 1024 l 1,20,-1
 1280 896 l 1,21,-1
 1280 768 l 1,22,-1
 1408 768 l 1,23,-1
 1536 768 l 1,24,-1
 1536 640 l 1,25,-1
 1536 512 l 1,26,-1
 1664 512 l 1,27,-1
 1792 512 l 1,28,-1
 1792 384 l 1,29,-1
 1792 256 l 1,30,-1
 1408 256 l 1,31,-1
 1024 256 l 1,32,-1
 1024 384 l 1,33,-1
 1024 512 l 1,34,-1
 896 512 l 1,35,-1
 768 512 l 1,36,-1
 768 640 l 1,37,-1
 768 768 l 1,38,-1
 640 768 l 1,39,-1
 512 768 l 1,40,-1
 512 512 l 1,41,-1
 512 256 l 1,42,-1
 256 256 l 1,43,-1
 0 256 l 1,0,-1
EndSplineSet
Validated: 1
EndChar

StartChar: l
Encoding: 108 108 37
Width: 2048
GlyphClass: 2
Flags: W
LayerCount: 2
Fore
SplineSet
256 256 m 1,0,-1
 256 384 l 1,1,-1
 256 512 l 1,2,-1
 512 512 l 1,3,-1
 768 512 l 1,4,-1
 768 1152 l 1,5,-1
 768 1792 l 1,6,-1
 640 1792 l 1,7,-1
 512 1792 l 1,8,-1
 512 1920 l 1,9,-1
 512 2048 l 1,10,-1
 896 2048 l 1,11,-1
 1280 2048 l 1,12,-1
 1280 1280 l 1,13,-1
 1280 512 l 1,14,-1
 1536 512 l 1,15,-1
 1792 512 l 1,16,-1
 1792 384 l 1,17,-1
 1792 256 l 1,18,-1
 1024 256 l 1,19,-1
 256 256 l 1,0,-1
EndSplineSet
Validated: 1
EndChar

StartChar: m
Encoding: 109 109 38
Width: 2048
GlyphClass: 2
Flags: W
LayerCount: 2
Fore
SplineSet
0 256 m 1,0,-1
 0 896 l 1,1,-1
 0 1536 l 1,2,-1
 768 1536 l 1,3,-1
 1536 1536 l 1,4,-1
 1536 1408 l 1,5,-1
 1536 1280 l 1,6,-1
 1664 1280 l 1,7,-1
 1792 1280 l 1,8,-1
 1792 768 l 1,9,-1
 1792 256 l 1,10,-1
 1536 256 l 1,11,-1
 1280 256 l 1,12,-1
 1280 768 l 1,13,-1
 1280 1280 l 1,14,-1
 1152 1280 l 1,15,-1
 1024 1280 l 1,16,-1
 1024 768 l 1,17,-1
 1024 256 l 1,18,-1
 768 256 l 1,19,-1
 512 256 l 1,20,-1
 512 768 l 1,21,-1
 512 1280 l 1,22,-1
 384 1280 l 1,23,-1
 256 1280 l 1,24,-1
 256 768 l 1,25,-1
 256 256 l 1,26,-1
 128 256 l 1,27,-1
 0 256 l 1,0,-1
EndSplineSet
Validated: 1
EndChar

StartChar: n
Encoding: 110 110 39
Width: 2048
GlyphClass: 2
Flags: W
LayerCount: 2
Fore
SplineSet
0 256 m 1,0,-1
 0 896 l 1,1,-1
 0 1536 l 1,2,-1
 768 1536 l 1,3,-1
 1536 1536 l 1,4,-1
 1536 1408 l 1,5,-1
 1536 1280 l 1,6,-1
 1664 1280 l 1,7,-1
 1792 1280 l 1,8,-1
 1792 768 l 1,9,-1
 1792 256 l 1,10,-1
 1536 256 l 1,11,-1
 1280 256 l 1,12,-1
 1280 768 l 1,13,-1
 1280 1280 l 1,14,-1
 896 1280 l 1,15,-1
 512 1280 l 1,16,-1
 512 768 l 1,17,-1
 512 256 l 1,18,-1
 256 256 l 1,19,-1
 0 256 l 1,0,-1
EndSplineSet
Validated: 1
EndChar

StartChar: o
Encoding: 111 111 40
Width: 2048
GlyphClass: 2
Flags: W
LayerCount: 2
Fore
SplineSet
0 512 m 1,0,-1
 0 896 l 1,1,-1
 0 1280 l 1,2,-1
 128 1280 l 1,3,-1
 256 1280 l 1,4,-1
 256 1408 l 1,5,-1
 256 1536 l 1,6,-1
 896 1536 l 1,7,-1
 1536 1536 l 1,8,-1
 1536 1408 l 1,9,-1
 1536 1280 l 1,10,-1
 1664 1280 l 1,11,-1
 1792 1280 l 1,12,-1
 1792 896 l 1,13,-1
 1792 512 l 1,14,-1
 1664 512 l 1,15,-1
 1536 512 l 1,16,-1
 1536 384 l 1,17,-1
 1536 256 l 1,18,-1
 896 256 l 1,19,-1
 256 256 l 1,20,-1
 256 384 l 1,21,-1
 256 512 l 1,22,-1
 128 512 l 1,23,-1
 0 512 l 1,0,-1
512 512 m 1,24,-1
 896 512 l 1,25,-1
 1280 512 l 1,26,-1
 1280 896 l 1,27,-1
 1280 1280 l 1,28,-1
 896 1280 l 1,29,-1
 512 1280 l 1,30,-1
 512 896 l 1,31,-1
 512 512 l 1,24,-1
EndSplineSet
Validated: 1
EndChar

StartChar: p
Encoding: 112 112 41
Width: 2048
GlyphClass: 2
Flags: W
LayerCount: 2
Fore
SplineSet
0 0 m 1,0,-1
 0 768 l 1,1,-1
 0 1536 l 1,2,-1
 768 1536 l 1,3,-1
 1536 1536 l 1,4,-1
 1536 1408 l 1,5,-1
 1536 1280 l 1,6,-1
 1664 1280 l 1,7,-1
 1792 1280 l 1,8,-1
 1792 1024 l 1,9,-1
 1792 768 l 1,10,-1
 1664 768 l 1,11,-1
 1536 768 l 1,12,-1
 1536 640 l 1,13,-1
 1536 512 l 1,14,-1
 1024 512 l 1,15,-1
 512 512 l 1,16,-1
 512 256 l 1,17,-1
 512 0 l 1,18,-1
 256 0 l 1,19,-1
 0 0 l 1,0,-1
512 768 m 1,20,-1
 896 768 l 1,21,-1
 1280 768 l 1,22,-1
 1280 1024 l 1,23,-1
 1280 1280 l 1,24,-1
 896 1280 l 1,25,-1
 512 1280 l 1,26,-1
 512 1024 l 1,27,-1
 512 768 l 1,20,-1
EndSplineSet
Validated: 1
EndChar

StartChar: q
Encoding: 113 113 42
Width: 2048
GlyphClass: 2
Flags: W
LayerCount: 2
Fore
SplineSet
0 768 m 1,0,-1
 0 1024 l 1,1,-1
 0 1280 l 1,2,-1
 128 1280 l 1,3,-1
 256 1280 l 1,4,-1
 256 1408 l 1,5,-1
 256 1536 l 1,6,-1
 1024 1536 l 1,7,-1
 1792 1536 l 1,8,-1
 1792 768 l 1,9,-1
 1792 0 l 1,10,-1
 1536 0 l 1,11,-1
 1280 0 l 1,12,-1
 1280 256 l 1,13,-1
 1280 512 l 1,14,-1
 768 512 l 1,15,-1
 256 512 l 1,16,-1
 256 640 l 1,17,-1
 256 768 l 1,18,-1
 128 768 l 1,19,-1
 0 768 l 1,0,-1
512 768 m 1,20,-1
 896 768 l 1,21,-1
 1280 768 l 1,22,-1
 1280 1024 l 1,23,-1
 1280 1280 l 1,24,-1
 896 1280 l 1,25,-1
 512 1280 l 1,26,-1
 512 1024 l 1,27,-1
 512 768 l 1,20,-1
EndSplineSet
Validated: 1
EndChar

StartChar: r
Encoding: 114 114 43
Width: 2048
GlyphClass: 2
Flags: W
LayerCount: 2
Fore
SplineSet
256 256 m 1,0,-1
 256 896 l 1,1,-1
 256 1536 l 1,2,-1
 512 1536 l 1,3,-1
 768 1536 l 1,4,-1
 768 1408 l 1,5,-1
 768 1280 l 1,6,-1
 896 1280 l 1,7,-1
 1024 1280 l 1,8,-1
 1024 1408 l 1,9,-1
 1024 1536 l 1,10,-1
 1408 1536 l 1,11,-1
 1792 1536 l 1,12,-1
 1792 1408 l 1,13,-1
 1792 1280 l 1,14,-1
 1408 1280 l 1,15,-1
 1024 1280 l 1,16,-1
 1024 1152 l 1,17,-1
 1024 1024 l 1,18,-1
 896 1024 l 1,19,-1
 768 1024 l 1,20,-1
 768 640 l 1,21,-1
 768 256 l 1,22,-1
 512 256 l 1,23,-1
 256 256 l 1,0,-1
EndSplineSet
Validated: 5
EndChar

StartChar: s
Encoding: 115 115 44
Width: 2048
GlyphClass: 2
Flags: W
LayerCount: 2
Fore
SplineSet
0 256 m 1,0,-1
 0 384 l 1,1,-1
 0 512 l 1,2,-1
 640 512 l 1,3,-1
 1280 512 l 1,4,-1
 1280 640 l 1,5,-1
 1280 768 l 1,6,-1
 768 768 l 1,7,-1
 256 768 l 1,8,-1
 256 896 l 1,9,-1
 256 1024 l 1,10,-1
 128 1024 l 1,11,-1
 0 1024 l 1,12,-1
 0 1152 l 1,13,-1
 0 1280 l 1,14,-1
 128 1280 l 1,15,-1
 256 1280 l 1,16,-1
 256 1408 l 1,17,-1
 256 1536 l 1,18,-1
 896 1536 l 1,19,-1
 1536 1536 l 1,20,-1
 1536 1408 l 1,21,-1
 1536 1280 l 1,22,-1
 1024 1280 l 1,23,-1
 512 1280 l 1,24,-1
 512 1152 l 1,25,-1
 512 1024 l 1,26,-1
 1024 1024 l 1,27,-1
 1536 1024 l 1,28,-1
 1536 896 l 1,29,-1
 1536 768 l 1,30,-1
 1664 768 l 1,31,-1
 1792 768 l 1,32,-1
 1792 640 l 1,33,-1
 1792 512 l 1,34,-1
 1664 512 l 1,35,-1
 1536 512 l 1,36,-1
 1536 384 l 1,37,-1
 1536 256 l 1,38,-1
 768 256 l 1,39,-1
 0 256 l 1,0,-1
EndSplineSet
Validated: 1
EndChar

StartChar: t
Encoding: 116 116 45
Width: 2048
GlyphClass: 2
Flags: W
LayerCount: 2
Fore
SplineSet
256 1280 m 1,0,-1
 256 1408 l 1,1,-1
 256 1536 l 1,2,-1
 512 1536 l 1,3,-1
 768 1536 l 1,4,-1
 768 1792 l 1,5,-1
 768 2048 l 1,6,-1
 1024 2048 l 1,7,-1
 1280 2048 l 1,8,-1
 1280 1792 l 1,9,-1
 1280 1536 l 1,10,-1
 1536 1536 l 1,11,-1
 1792 1536 l 1,12,-1
 1792 1408 l 1,13,-1
 1792 1280 l 1,14,-1
 1536 1280 l 1,15,-1
 1280 1280 l 1,16,-1
 1280 768 l 1,17,-1
 1280 256 l 1,18,-1
 1024 256 l 1,19,-1
 768 256 l 1,20,-1
 768 768 l 1,21,-1
 768 1280 l 1,22,-1
 512 1280 l 1,23,-1
 256 1280 l 1,0,-1
EndSplineSet
Validated: 1
EndChar

StartChar: u
Encoding: 117 117 46
Width: 2048
GlyphClass: 2
Flags: W
LayerCount: 2
Fore
SplineSet
0 512 m 1,0,-1
 0 1024 l 1,1,-1
 0 1536 l 1,2,-1
 256 1536 l 1,3,-1
 512 1536 l 1,4,-1
 512 1024 l 1,5,-1
 512 512 l 1,6,-1
 896 512 l 1,7,-1
 1280 512 l 1,8,-1
 1280 1024 l 1,9,-1
 1280 1536 l 1,10,-1
 1536 1536 l 1,11,-1
 1792 1536 l 1,12,-1
 1792 896 l 1,13,-1
 1792 256 l 1,14,-1
 1024 256 l 1,15,-1
 256 256 l 1,16,-1
 256 384 l 1,17,-1
 256 512 l 1,18,-1
 128 512 l 1,19,-1
 0 512 l 1,0,-1
EndSplineSet
Validated: 1
EndChar

StartChar: v
Encoding: 118 118 47
Width: 2048
GlyphClass: 2
Flags: W
LayerCount: 2
Fore
SplineSet
256 768 m 1,0,-1
 256 1152 l 1,1,-1
 256 1536 l 1,2,-1
 512 1536 l 1,3,-1
 768 1536 l 1,4,-1
 768 1152 l 1,5,-1
 768 768 l 1,6,-1
 1024 768 l 1,7,-1
 1280 768 l 1,8,-1
 1280 1152 l 1,9,-1
 1280 1536 l 1,10,-1
 1536 1536 l 1,11,-1
 1792 1536 l 1,12,-1
 1792 1152 l 1,13,-1
 1792 768 l 1,14,-1
 1664 768 l 1,15,-1
 1536 768 l 1,16,-1
 1536 640 l 1,17,-1
 1536 512 l 1,18,-1
 1408 512 l 1,19,-1
 1280 512 l 1,20,-1
 1280 384 l 1,21,-1
 1280 256 l 1,22,-1
 1024 256 l 1,23,-1
 768 256 l 1,24,-1
 768 384 l 1,25,-1
 768 512 l 1,26,-1
 640 512 l 1,27,-1
 512 512 l 1,28,-1
 512 640 l 1,29,-1
 512 768 l 1,30,-1
 384 768 l 1,31,-1
 256 768 l 1,0,-1
EndSplineSet
Validated: 1
EndChar

StartChar: w
Encoding: 119 119 48
Width: 2048
GlyphClass: 2
Flags: W
LayerCount: 2
Fore
SplineSet
0 512 m 1,0,-1
 0 1024 l 1,1,-1
 0 1536 l 1,2,-1
 128 1536 l 1,3,-1
 256 1536 l 1,4,-1
 256 1024 l 1,5,-1
 256 512 l 1,6,-1
 384 512 l 1,7,-1
 512 512 l 1,8,-1
 512 1024 l 1,9,-1
 512 1536 l 1,10,-1
 768 1536 l 1,11,-1
 1024 1536 l 1,12,-1
 1024 1024 l 1,13,-1
 1024 512 l 1,14,-1
 1152 512 l 1,15,-1
 1280 512 l 1,16,-1
 1280 1024 l 1,17,-1
 1280 1536 l 1,18,-1
 1536 1536 l 1,19,-1
 1792 1536 l 1,20,-1
 1792 896 l 1,21,-1
 1792 256 l 1,22,-1
 1024 256 l 1,23,-1
 256 256 l 1,24,-1
 256 384 l 1,25,-1
 256 512 l 1,26,-1
 128 512 l 1,27,-1
 0 512 l 1,0,-1
EndSplineSet
Validated: 5
EndChar

StartChar: x
Encoding: 120 120 49
Width: 2048
GlyphClass: 2
Flags: W
LayerCount: 2
Fore
SplineSet
0 256 m 1,0,-1
 0 512 l 1,1,-1
 0 768 l 1,2,-1
 256 768 l 1,3,-1
 512 768 l 1,4,-1
 512 896 l 1,5,-1
 512 1024 l 1,6,-1
 256 1024 l 1,7,-1
 0 1024 l 1,8,-1
 0 1280 l 1,9,-1
 0 1536 l 1,10,-1
 256 1536 l 1,11,-1
 512 1536 l 1,12,-1
 512 1408 l 1,13,-1
 512 1280 l 1,14,-1
 896 1280 l 1,15,-1
 1280 1280 l 1,16,-1
 1280 1408 l 1,17,-1
 1280 1536 l 1,18,-1
 1536 1536 l 1,19,-1
 1792 1536 l 1,20,-1
 1792 1280 l 1,21,-1
 1792 1024 l 1,22,-1
 1536 1024 l 1,23,-1
 1280 1024 l 1,24,-1
 1280 896 l 1,25,-1
 1280 768 l 1,26,-1
 1536 768 l 1,27,-1
 1792 768 l 1,28,-1
 1792 512 l 1,29,-1
 1792 256 l 1,30,-1
 1536 256 l 1,31,-1
 1280 256 l 1,32,-1
 1280 384 l 1,33,-1
 1280 512 l 1,34,-1
 896 512 l 1,35,-1
 512 512 l 1,36,-1
 512 384 l 1,37,-1
 512 256 l 1,38,-1
 256 256 l 1,39,-1
 0 256 l 1,0,-1
EndSplineSet
Validated: 1
EndChar

StartChar: y
Encoding: 121 121 50
Width: 2048
GlyphClass: 2
Flags: W
LayerCount: 2
Fore
SplineSet
0 768 m 1,0,-1
 0 1152 l 1,1,-1
 0 1536 l 1,2,-1
 256 1536 l 1,3,-1
 512 1536 l 1,4,-1
 512 1152 l 1,5,-1
 512 768 l 1,6,-1
 896 768 l 1,7,-1
 1280 768 l 1,8,-1
 1280 1152 l 1,9,-1
 1280 1536 l 1,10,-1
 1536 1536 l 1,11,-1
 1792 1536 l 1,12,-1
 1792 896 l 1,13,-1
 1792 256 l 1,14,-1
 1664 256 l 1,15,-1
 1536 256 l 1,16,-1
 1536 128 l 1,17,-1
 1536 0 l 1,18,-1
 896 0 l 1,19,-1
 256 0 l 1,20,-1
 256 128 l 1,21,-1
 256 256 l 1,22,-1
 768 256 l 1,23,-1
 1280 256 l 1,24,-1
 1280 384 l 1,25,-1
 1280 512 l 1,26,-1
 768 512 l 1,27,-1
 256 512 l 1,28,-1
 256 640 l 1,29,-1
 256 768 l 1,30,-1
 128 768 l 1,31,-1
 0 768 l 1,0,-1
EndSplineSet
Validated: 1
EndChar

StartChar: z
Encoding: 122 122 51
Width: 2048
GlyphClass: 2
Flags: W
LayerCount: 2
Fore
SplineSet
0 256 m 1,0,-1
 0 384 l 1,1,-1
 0 512 l 1,2,-1
 128 512 l 1,3,-1
 256 512 l 1,4,-1
 256 640 l 1,5,-1
 256 768 l 1,6,-1
 384 768 l 1,7,-1
 512 768 l 1,8,-1
 512 896 l 1,9,-1
 512 1024 l 1,10,-1
 640 1024 l 1,11,-1
 768 1024 l 1,12,-1
 768 1152 l 1,13,-1
 768 1280 l 1,14,-1
 384 1280 l 1,15,-1
 0 1280 l 1,16,-1
 0 1408 l 1,17,-1
 0 1536 l 1,18,-1
 896 1536 l 1,19,-1
 1792 1536 l 1,20,-1
 1792 1408 l 1,21,-1
 1792 1280 l 1,22,-1
 1664 1280 l 1,23,-1
 1536 1280 l 1,24,-1
 1536 1152 l 1,25,-1
 1536 1024 l 1,26,-1
 1408 1024 l 1,27,-1
 1280 1024 l 1,28,-1
 1280 896 l 1,29,-1
 1280 768 l 1,30,-1
 1152 768 l 1,31,-1
 1024 768 l 1,32,-1
 1024 640 l 1,33,-1
 1024 512 l 1,34,-1
 1408 512 l 1,35,-1
 1792 512 l 1,36,-1
 1792 384 l 1,37,-1
 1792 256 l 1,38,-1
 896 256 l 1,39,-1
 0 256 l 1,0,-1
EndSplineSet
Validated: 1
EndChar
